# xmcd
#
# Track frame offsets: 
#        150
#        14775
#        31030
#        43425
#        55326
#        71610
#        84501
#        98699
#        112044
#        128755
#        145812
#        157429
#        169803
#        186342
#
# Disc length: 2678 seconds
#
# Revision: 0
# Processed by: cddbd v1.5PL3 Copyright (c) Steve Scherf et al.
# Submitted via: ExactAudioCopy v0.95a3
#
DISCID=cd0a740e
DTITLE=Vince Hatfield - Take It Easy On Yourself
DYEAR=2003
DGENRE=Country
TTITLE0=Smokey Mountain Memories
TTITLE1=I Go Crazy
TTITLE2=Concrete Jungle
TTITLE3=The Girl I Dream About
TTITLE4=Take It Easy On Yourself
TTITLE5=We're Only In Love
TTITLE6=Cool Water
TTITLE7=Sweet Sweet Smile
TTITLE8=Reason For The Pain
TTITLE9=Old Yellow Moon
TTITLE10=Thnking With My Heart
TTITLE11=Watching Our Kids Grow
TTITLE12=I Wanna Do It Again
TTITLE13=Lonely Texas Night
EXTD=
EXTT0=
EXTT1=
EXTT2=
EXTT3=
EXTT4=
EXTT5=
EXTT6=
EXTT7=
EXTT8=
EXTT9=
EXTT10=
EXTT11=
EXTT12=
EXTT13=
PLAYORDER=
